<svg xmlns="http://www.w3.org/2000/svg" xmlns:xlink="http://www.w3.org/1999/xlink" width="1000" zoomAndPan="magnify" viewBox="0 0 750 749.999995" height="1000" preserveAspectRatio="xMidYMid meet" version="1.0"><defs><g/><clipPath id="e05d46d3dd"><path d="M 226 308.8125 L 524 308.8125 L 524 438 L 226 438 Z M 226 308.8125 " clip-rule="nonzero"/></clipPath><clipPath id="1d42818791"><path d="M 247.609375 336.984375 L 326.59375 336.984375 L 326.59375 415.734375 L 247.609375 415.734375 Z M 247.609375 336.984375 " clip-rule="nonzero"/></clipPath><clipPath id="f930c287a4"><path d="M 403 336.984375 L 482.003906 336.984375 L 482.003906 415.734375 L 403 415.734375 Z M 403 336.984375 " clip-rule="nonzero"/></clipPath></defs><g clip-path="url(#e05d46d3dd)"><path fill="#4f6d7a" d="M 500.417969 374.28125 C 500.175781 400.644531 478.277344 421.984375 451.8125 421.644531 C 425.824219 421.3125 404.523438 399.433594 404.828125 373.394531 C 405.144531 346.761719 426.855469 325.253906 453.078125 325.589844 C 479.441406 325.925781 500.660156 347.75 500.417969 374.28125 Z M 298.1875 421.644531 C 271.722656 421.984375 249.824219 400.644531 249.582031 374.28125 C 249.339844 347.75 270.558594 325.925781 296.921875 325.589844 C 323.148438 325.253906 344.855469 346.761719 345.171875 373.394531 C 345.476562 399.433594 324.175781 421.3125 298.1875 421.644531 Z M 522.78125 370.328125 C 522.949219 367.972656 524.140625 363.792969 520.394531 363.726562 C 516.148438 363.652344 514.960938 361.523438 514.195312 358.917969 C 507.910156 330.308594 482.429688 308.835938 452.039062 308.835938 C 422.5 308.835938 397.597656 329.121094 390.457031 356.53125 C 386.828125 361.566406 382.183594 363.609375 375 363.90625 C 367.816406 363.609375 363.171875 361.566406 359.542969 356.53125 C 352.402344 329.121094 327.5 308.835938 297.960938 308.835938 C 267.570312 308.835938 242.089844 330.308594 235.804688 358.917969 C 235.039062 361.519531 233.851562 363.652344 229.605469 363.726562 C 225.859375 363.792969 227.050781 367.972656 227.21875 370.328125 C 227.433594 373.386719 225.007812 378.324219 229.6875 379.050781 C 235.105469 379.894531 234.574219 383.648438 235.378906 386.941406 C 241.570312 412.246094 256.992188 429.058594 282.15625 435.382812 C 306.722656 441.558594 327.988281 434.367188 345.160156 415.683594 C 349.691406 410.757812 353.230469 405.257812 355.792969 399.292969 C 358.222656 394.003906 359.953125 388.339844 360.863281 382.398438 C 362.144531 380.085938 364.371094 379.171875 367.886719 379.390625 C 370.082031 379.53125 372.527344 379.398438 375 379.257812 C 377.472656 379.398438 379.917969 379.53125 382.113281 379.390625 C 385.628906 379.171875 387.855469 380.085938 389.136719 382.398438 C 390.046875 388.335938 391.777344 394.003906 394.207031 399.289062 C 396.769531 405.253906 400.308594 410.753906 404.839844 415.683594 C 422.011719 434.367188 443.28125 441.558594 467.84375 435.382812 C 493.007812 429.058594 508.429688 412.246094 514.621094 386.941406 C 515.429688 383.648438 514.894531 379.894531 520.3125 379.050781 C 524.992188 378.324219 522.566406 373.386719 522.78125 370.328125 " fill-opacity="1" fill-rule="nonzero"/></g><g clip-path="url(#1d42818791)"><path fill="#bf5a36" d="M 326.5625 376.367188 C 326.5625 398.121094 308.886719 415.753906 287.085938 415.753906 C 265.28125 415.753906 247.609375 398.121094 247.609375 376.367188 C 247.609375 354.617188 265.28125 336.984375 287.085938 336.984375 C 308.886719 336.984375 326.5625 354.617188 326.5625 376.367188 " fill-opacity="1" fill-rule="nonzero"/></g><path fill="#ffffff" d="M 296.132812 370.625 C 296.132812 379.6875 288.765625 387.035156 279.683594 387.035156 C 270.597656 387.035156 263.234375 379.6875 263.234375 370.625 C 263.234375 361.5625 270.597656 354.214844 279.683594 354.214844 C 288.765625 354.214844 296.132812 361.5625 296.132812 370.625 " fill-opacity="1" fill-rule="nonzero"/><path fill="#ffffff" d="M 308.46875 395.238281 C 308.46875 399.773438 304.785156 403.445312 300.246094 403.445312 C 295.703125 403.445312 292.019531 399.773438 292.019531 395.238281 C 292.019531 390.710938 295.703125 387.035156 300.246094 387.035156 C 304.785156 387.035156 308.46875 390.710938 308.46875 395.238281 " fill-opacity="1" fill-rule="nonzero"/><g clip-path="url(#f930c287a4)"><path fill="#bf5a36" d="M 482.003906 376.367188 C 482.003906 398.121094 464.332031 415.753906 442.527344 415.753906 C 420.726562 415.753906 403.050781 398.121094 403.050781 376.367188 C 403.050781 354.617188 420.726562 336.984375 442.527344 336.984375 C 464.332031 336.984375 482.003906 354.617188 482.003906 376.367188 " fill-opacity="1" fill-rule="nonzero"/></g><path fill="#ffffff" d="M 451.574219 370.625 C 451.574219 379.6875 444.210938 387.035156 435.125 387.035156 C 426.042969 387.035156 418.675781 379.6875 418.675781 370.625 C 418.675781 361.5625 426.042969 354.214844 435.125 354.214844 C 444.210938 354.214844 451.574219 361.5625 451.574219 370.625 " fill-opacity="1" fill-rule="nonzero"/><path fill="#ffffff" d="M 463.914062 395.238281 C 463.914062 399.773438 460.230469 403.445312 455.6875 403.445312 C 451.144531 403.445312 447.460938 399.773438 447.460938 395.238281 C 447.460938 390.710938 451.144531 387.035156 455.6875 387.035156 C 460.230469 387.035156 463.914062 390.710938 463.914062 395.238281 " fill-opacity="1" fill-rule="nonzero"/><g fill="#4f6d7a" fill-opacity="1"><g transform="translate(104.833591, 438.525702)"><g><path d="M 15.480469 0 L 70.242188 0 C 92.6875 0 111.070312 -18.382812 111.070312 -41.601562 C 111.070312 -52.4375 105.84375 -63.082031 96.75 -69.273438 C 105.457031 -75.273438 109.132812 -86.109375 109.519531 -96.554688 C 110.101562 -120.9375 94.816406 -138.546875 70.242188 -138.546875 L 15.480469 -138.546875 Z M 43.34375 -110.875 L 67.917969 -110.875 C 75.851562 -110.875 80.691406 -104.683594 80.691406 -96.945312 C 80.691406 -89.398438 75.851562 -83.011719 67.917969 -83.011719 L 43.34375 -83.011719 Z M 43.34375 -55.339844 L 67.917969 -55.339844 C 75.851562 -55.339844 81.851562 -49.34375 81.851562 -41.601562 C 81.851562 -33.863281 75.851562 -27.671875 67.917969 -27.671875 L 43.34375 -27.671875 Z M 43.34375 -55.339844 "/></g></g></g><g fill="#4f6d7a" fill-opacity="1"><g transform="translate(525.002329, 438.525702)"><g><path d="M 15.480469 0 L 43.152344 0 L 43.152344 -54.179688 L 79.914062 0 L 114.164062 0 L 65.402344 -70.046875 L 110.296875 -138.351562 L 77.980469 -138.351562 L 43.152344 -83.203125 L 43.152344 -138.351562 L 15.480469 -138.351562 Z M 15.480469 0 "/></g></g></g><g fill="#bf5a36" fill-opacity="1"><g transform="translate(304.799988, 506.687491)"><g><path d="M 17.839844 -31.117188 L 46.796875 1.199219 L 49.835938 1.199219 L 49.835938 -57.117188 L 38.316406 -57.117188 L 38.316406 -24.796875 L 9.4375 -58.394531 L 6.398438 -58.394531 L 6.398438 0 L 17.839844 0 Z M 17.839844 -31.117188 "/></g></g></g><g fill="#bf5a36" fill-opacity="1"><g transform="translate(361.114392, 506.687491)"><g><path d="M 35.996094 0 L 35.996094 -11.4375 L 17.839844 -11.4375 L 17.839844 -22.878906 L 32.878906 -22.878906 L 32.878906 -34.316406 L 17.839844 -34.316406 L 17.839844 -45.757812 L 35.039062 -45.757812 L 35.039062 -57.195312 L 6.398438 -57.195312 L 6.398438 0 Z M 35.996094 0 "/></g></g></g><g fill="#bf5a36" fill-opacity="1"><g transform="translate(401.430393, 506.687491)"><g><path d="M 27.277344 0 L 27.277344 -45.757812 L 41.515625 -45.757812 L 41.515625 -57.117188 L 1.601562 -57.117188 L 1.601562 -45.757812 L 15.839844 -45.757812 L 15.839844 0 Z M 27.277344 0 "/></g></g></g></svg>